<svg xmlns="http://www.w3.org/2000/svg" xmlns:xlink="http://www.w3.org/1999/xlink" width="500" zoomAndPan="magnify" viewBox="0 0 375 374.999991" height="500" preserveAspectRatio="xMidYMid meet" version="1.2"><defs><clipPath id="0e5563ee51"><path d="M 55.46875 115.25 L 180.71875 115.25 L 180.71875 260 L 55.46875 260 Z M 55.46875 115.25 "/></clipPath><clipPath id="9939ba3f64"><path d="M 148.929688 116 L 168.464844 116 L 168.464844 164.5 L 148.929688 164.5 Z M 148.929688 116 "/></clipPath><clipPath id="72d8d0313a"><path d="M 148.929688 154.242188 L 148.929688 117.496094 C 148.929688 117.003906 149.179688 116.542969 149.59375 116.277344 C 150.011719 116.007812 150.53125 115.96875 150.984375 116.167969 L 166.414062 123.097656 C 167.660156 123.660156 168.464844 124.902344 168.464844 126.269531 L 168.464844 163.015625 C 168.464844 163.507812 168.214844 163.96875 167.800781 164.238281 C 167.386719 164.503906 166.863281 164.542969 166.414062 164.34375 L 150.984375 157.414062 C 149.734375 156.851562 148.929688 155.613281 148.929688 154.242188 Z M 148.929688 154.242188 "/></clipPath><clipPath id="50f23f7a3b"><path d="M 89.660156 147.859375 L 146.96875 147.859375 L 146.96875 180.390625 L 89.660156 180.390625 Z M 89.660156 147.859375 "/></clipPath><clipPath id="85f1761d71"><path d="M 122.8125 149.941406 L 146.054688 175.40625 C 146.847656 176.277344 147.054688 177.535156 146.578125 178.613281 C 146.101562 179.695312 145.035156 180.390625 143.855469 180.390625 L 92.671875 180.390625 C 91.492188 180.390625 90.421875 179.695312 89.945312 178.613281 C 89.46875 177.535156 89.675781 176.277344 90.472656 175.40625 L 113.710938 149.941406 C 114.878906 148.660156 116.53125 147.933594 118.261719 147.933594 C 119.996094 147.933594 121.644531 148.660156 122.8125 149.941406 Z M 122.8125 149.941406 "/></clipPath><clipPath id="afa1de3ebf"><path d="M 90.621094 187.507812 L 119.871094 187.507812 L 119.871094 219.757812 L 90.621094 219.757812 Z M 90.621094 187.507812 "/></clipPath></defs><g id="03df170f48"><g clip-rule="nonzero" clip-path="url(#0e5563ee51)"><path style=" stroke:none;fill-rule:nonzero;fill:#9047da;fill-opacity:1;" d="M 158.832031 259.347656 L 76.949219 259.347656 C 76.246094 259.347656 75.546875 259.3125 74.851562 259.242188 C 74.152344 259.171875 73.460938 259.070312 72.773438 258.933594 C 72.085938 258.796875 71.410156 258.625 70.738281 258.421875 C 70.066406 258.21875 69.410156 257.980469 68.761719 257.710938 C 68.113281 257.445312 67.484375 257.144531 66.863281 256.8125 C 66.246094 256.484375 65.648438 256.121094 65.0625 255.734375 C 64.480469 255.34375 63.917969 254.925781 63.378906 254.480469 C 62.835938 254.039062 62.316406 253.566406 61.824219 253.070312 C 61.328125 252.578125 60.855469 252.058594 60.414062 251.515625 C 59.96875 250.976562 59.550781 250.414062 59.160156 249.832031 C 58.773438 249.25 58.414062 248.648438 58.082031 248.03125 C 57.75 247.414062 57.453125 246.78125 57.183594 246.132812 C 56.914062 245.484375 56.679688 244.828125 56.472656 244.15625 C 56.269531 243.484375 56.101562 242.808594 55.960938 242.121094 C 55.824219 241.433594 55.722656 240.742188 55.652344 240.042969 C 55.582031 239.347656 55.546875 238.648438 55.546875 237.945312 L 55.546875 180.546875 C 55.542969 179.195312 55.671875 177.855469 55.925781 176.527344 C 56.183594 175.199219 56.566406 173.910156 57.074219 172.65625 C 57.582031 171.402344 58.203125 170.210938 58.941406 169.078125 C 59.679688 167.945312 60.519531 166.894531 61.460938 165.921875 L 105.265625 120.621094 C 105.671875 120.199219 106.101562 119.796875 106.546875 119.417969 C 106.996094 119.035156 107.460938 118.679688 107.945312 118.34375 C 108.429688 118.011719 108.929688 117.703125 109.445312 117.417969 C 109.960938 117.136719 110.488281 116.878906 111.027344 116.648438 C 111.570312 116.417969 112.121094 116.214844 112.683594 116.039062 C 113.242188 115.867188 113.8125 115.71875 114.390625 115.601562 C 114.964844 115.484375 115.546875 115.394531 116.128906 115.335938 C 116.714844 115.277344 117.300781 115.25 117.890625 115.25 C 118.476562 115.25 119.0625 115.277344 119.648438 115.335938 C 120.234375 115.394531 120.816406 115.484375 121.390625 115.601562 C 121.96875 115.71875 122.535156 115.867188 123.097656 116.039062 C 123.660156 116.214844 124.210938 116.417969 124.75 116.648438 C 125.292969 116.878906 125.820312 117.136719 126.335938 117.417969 C 126.851562 117.703125 127.347656 118.011719 127.832031 118.34375 C 128.316406 118.679688 128.785156 119.035156 129.230469 119.417969 C 129.679688 119.796875 130.105469 120.199219 130.515625 120.621094 L 178.402344 170.144531 C 178.703125 170.449219 178.96875 170.785156 179.203125 171.144531 C 179.433594 171.503906 179.632812 171.882812 179.789062 172.28125 C 179.949219 172.679688 180.066406 173.089844 180.144531 173.511719 C 180.222656 173.933594 180.257812 174.359375 180.253906 174.789062 C 180.246094 175.214844 180.199219 175.640625 180.109375 176.058594 C 180.019531 176.480469 179.890625 176.886719 179.71875 177.28125 C 179.546875 177.671875 179.339844 178.046875 179.097656 178.398438 C 178.851562 178.75 178.578125 179.078125 178.269531 179.375 C 177.960938 179.671875 177.625 179.9375 177.265625 180.171875 C 176.902344 180.402344 176.523438 180.597656 176.125 180.753906 C 175.726562 180.910156 175.316406 181.027344 174.894531 181.105469 C 174.46875 181.179688 174.046875 181.214844 173.617188 181.207031 C 173.1875 181.195312 172.761719 181.148438 172.34375 181.054688 C 171.925781 180.964844 171.519531 180.832031 171.125 180.660156 C 170.734375 180.488281 170.363281 180.277344 170.007812 180.03125 C 169.65625 179.785156 169.332031 179.507812 169.039062 179.199219 L 121.148438 129.695312 C 120.9375 129.472656 120.707031 129.277344 120.457031 129.101562 C 120.210938 128.925781 119.945312 128.777344 119.664062 128.65625 C 119.382812 128.535156 119.09375 128.441406 118.796875 128.378906 C 118.496094 128.316406 118.195312 128.289062 117.890625 128.289062 C 117.585938 128.289062 117.28125 128.316406 116.984375 128.378906 C 116.683594 128.441406 116.394531 128.535156 116.117188 128.65625 C 115.835938 128.777344 115.570312 128.925781 115.320312 129.101562 C 115.070312 129.277344 114.84375 129.472656 114.632812 129.695312 L 70.824219 174.980469 C 70.101562 175.726562 69.550781 176.585938 69.164062 177.550781 C 68.777344 178.515625 68.585938 179.519531 68.59375 180.5625 L 68.59375 237.945312 C 68.59375 238.496094 68.648438 239.039062 68.753906 239.578125 C 68.863281 240.117188 69.023438 240.640625 69.234375 241.148438 C 69.445312 241.65625 69.703125 242.140625 70.007812 242.597656 C 70.3125 243.054688 70.660156 243.476562 71.046875 243.863281 C 71.4375 244.253906 71.859375 244.601562 72.316406 244.90625 C 72.773438 245.210938 73.257812 245.46875 73.765625 245.679688 C 74.269531 245.890625 74.792969 246.050781 75.332031 246.160156 C 75.871094 246.265625 76.417969 246.320312 76.96875 246.320312 L 158.851562 246.320312 C 159.277344 246.320312 159.703125 246.363281 160.121094 246.445312 C 160.539062 246.53125 160.949219 246.652344 161.34375 246.816406 C 161.738281 246.980469 162.113281 247.179688 162.46875 247.417969 C 162.824219 247.65625 163.152344 247.925781 163.457031 248.230469 C 163.757812 248.53125 164.027344 248.859375 164.265625 249.214844 C 164.503906 249.570312 164.703125 249.945312 164.867188 250.34375 C 165.03125 250.738281 165.15625 251.144531 165.238281 251.5625 C 165.320312 251.984375 165.363281 252.40625 165.363281 252.835938 C 165.363281 253.261719 165.320312 253.6875 165.238281 254.105469 C 165.15625 254.523438 165.03125 254.933594 164.867188 255.328125 C 164.703125 255.722656 164.503906 256.097656 164.265625 256.453125 C 164.027344 256.808594 163.757812 257.136719 163.457031 257.441406 C 163.152344 257.742188 162.824219 258.011719 162.46875 258.25 C 162.113281 258.488281 161.738281 258.6875 161.34375 258.851562 C 160.949219 259.015625 160.539062 259.140625 160.121094 259.222656 C 159.703125 259.304688 159.277344 259.347656 158.851562 259.347656 Z M 158.832031 259.347656 "/></g><g clip-rule="nonzero" clip-path="url(#9939ba3f64)"><g clip-rule="nonzero" clip-path="url(#72d8d0313a)"><path style=" stroke:none;fill-rule:nonzero;fill:#9047da;fill-opacity:1;" d="M 148.929688 165.265625 L 148.929688 115.28125 L 168.464844 115.28125 L 168.464844 165.265625 Z M 148.929688 165.265625 "/></g></g><g clip-rule="nonzero" clip-path="url(#50f23f7a3b)"><g clip-rule="nonzero" clip-path="url(#85f1761d71)"><path style=" stroke:none;fill-rule:nonzero;fill:#d9d9d9;fill-opacity:1;" d="M 85.921875 144.953125 L 150.566406 144.953125 L 150.566406 180.390625 L 85.921875 180.390625 Z M 85.921875 144.953125 "/></g></g><g style="fill:#ffffff;fill-opacity:1;"><g transform="translate(120.767817, 216.818991)"><path style="stroke:none" d="M 15.140625 -29.265625 C 19.035156 -29.265625 22.414062 -27.859375 25.28125 -25.046875 C 28.144531 -22.234375 29.578125 -18.742188 29.578125 -14.578125 C 29.578125 -10.410156 28.207031 -6.859375 25.46875 -3.921875 C 22.738281 -0.992188 19.375 0.46875 15.375 0.46875 C 11.382812 0.46875 7.988281 -0.972656 5.1875 -3.859375 C 2.382812 -6.753906 0.984375 -10.203125 0.984375 -14.203125 C 0.984375 -16.378906 1.378906 -18.421875 2.171875 -20.328125 C 2.960938 -22.234375 4.015625 -23.828125 5.328125 -25.109375 C 6.640625 -26.398438 8.148438 -27.414062 9.859375 -28.15625 C 11.566406 -28.894531 13.328125 -29.265625 15.140625 -29.265625 Z M 7.96875 -14.390625 C 7.96875 -12.054688 8.722656 -10.15625 10.234375 -8.6875 C 11.742188 -7.226562 13.429688 -6.5 15.296875 -6.5 C 17.171875 -6.5 18.851562 -7.207031 20.34375 -8.625 C 21.84375 -10.050781 22.59375 -11.957031 22.59375 -14.34375 C 22.59375 -16.738281 21.835938 -18.660156 20.328125 -20.109375 C 18.816406 -21.554688 17.128906 -22.28125 15.265625 -22.28125 C 13.398438 -22.28125 11.71875 -21.550781 10.21875 -20.09375 C 8.71875 -18.632812 7.96875 -16.734375 7.96875 -14.390625 Z M 7.96875 -14.390625 "/></g></g><g style="fill:#ffffff;fill-opacity:1;"><g transform="translate(156.730712, 216.818991)"><path style="stroke:none" d="M 15.140625 -29.265625 C 19.035156 -29.265625 22.414062 -27.859375 25.28125 -25.046875 C 28.144531 -22.234375 29.578125 -18.742188 29.578125 -14.578125 C 29.578125 -10.410156 28.207031 -6.859375 25.46875 -3.921875 C 22.738281 -0.992188 19.375 0.46875 15.375 0.46875 C 11.382812 0.46875 7.988281 -0.972656 5.1875 -3.859375 C 2.382812 -6.753906 0.984375 -10.203125 0.984375 -14.203125 C 0.984375 -16.378906 1.378906 -18.421875 2.171875 -20.328125 C 2.960938 -22.234375 4.015625 -23.828125 5.328125 -25.109375 C 6.640625 -26.398438 8.148438 -27.414062 9.859375 -28.15625 C 11.566406 -28.894531 13.328125 -29.265625 15.140625 -29.265625 Z M 7.96875 -14.390625 C 7.96875 -12.054688 8.722656 -10.15625 10.234375 -8.6875 C 11.742188 -7.226562 13.429688 -6.5 15.296875 -6.5 C 17.171875 -6.5 18.851562 -7.207031 20.34375 -8.625 C 21.84375 -10.050781 22.59375 -11.957031 22.59375 -14.34375 C 22.59375 -16.738281 21.835938 -18.660156 20.328125 -20.109375 C 18.816406 -21.554688 17.128906 -22.28125 15.265625 -22.28125 C 13.398438 -22.28125 11.71875 -21.550781 10.21875 -20.09375 C 8.71875 -18.632812 7.96875 -16.734375 7.96875 -14.390625 Z M 7.96875 -14.390625 "/></g></g><g style="fill:#ffffff;fill-opacity:1;"><g transform="translate(192.693607, 216.818991)"><path style="stroke:none" d="M 32.296875 -27.796875 C 32.503906 -27.410156 32.628906 -27.054688 32.671875 -26.734375 C 32.710938 -26.421875 32.734375 -25.960938 32.734375 -25.359375 L 32.734375 -3.46875 C 32.734375 -1.65625 32.234375 -0.59375 31.234375 -0.28125 C 30.734375 -0.125 30.101562 -0.046875 29.34375 -0.046875 C 28.582031 -0.046875 27.976562 -0.109375 27.53125 -0.234375 C 27.082031 -0.367188 26.738281 -0.523438 26.5 -0.703125 C 26.257812 -0.890625 26.078125 -1.15625 25.953125 -1.5 C 25.816406 -1.945312 25.75 -2.628906 25.75 -3.546875 L 25.75 -16.765625 C 25.09375 -15.941406 24.132812 -14.644531 22.875 -12.875 C 21.613281 -11.101562 20.8125 -9.992188 20.46875 -9.546875 C 20.125 -9.097656 19.882812 -8.785156 19.75 -8.609375 C 19.625 -8.441406 19.300781 -8.207031 18.78125 -7.90625 C 18.269531 -7.601562 17.71875 -7.453125 17.125 -7.453125 C 16.539062 -7.453125 16.003906 -7.585938 15.515625 -7.859375 C 15.035156 -8.140625 14.6875 -8.410156 14.46875 -8.671875 L 14.15625 -9.109375 C 13.632812 -9.765625 12.597656 -11.164062 11.046875 -13.3125 C 9.492188 -15.457031 8.648438 -16.609375 8.515625 -16.765625 L 8.515625 -3.46875 C 8.515625 -2.863281 8.492188 -2.410156 8.453125 -2.109375 C 8.421875 -1.804688 8.296875 -1.472656 8.078125 -1.109375 C 7.691406 -0.398438 6.671875 -0.046875 5.015625 -0.046875 C 3.410156 -0.046875 2.410156 -0.398438 2.015625 -1.109375 C 1.804688 -1.472656 1.679688 -1.8125 1.640625 -2.125 C 1.597656 -2.445312 1.578125 -2.921875 1.578125 -3.546875 L 1.578125 -25.4375 C 1.578125 -26.039062 1.597656 -26.492188 1.640625 -26.796875 C 1.679688 -27.097656 1.804688 -27.445312 2.015625 -27.84375 C 2.410156 -28.53125 3.4375 -28.875 5.09375 -28.875 C 5.800781 -28.875 6.410156 -28.785156 6.921875 -28.609375 C 7.429688 -28.441406 7.765625 -28.265625 7.921875 -28.078125 L 8.15625 -27.84375 L 17.109375 -16.09375 C 21.578125 -22.007812 24.5625 -25.910156 26.0625 -27.796875 C 26.507812 -28.515625 27.566406 -28.875 29.234375 -28.875 C 30.910156 -28.875 31.929688 -28.515625 32.296875 -27.796875 Z M 32.296875 -27.796875 "/></g></g><g style="fill:#ffffff;fill-opacity:1;"><g transform="translate(232.402435, 216.818991)"><path style="stroke:none" d="M 1.578125 -25.4375 C 1.578125 -26.039062 1.597656 -26.492188 1.640625 -26.796875 C 1.679688 -27.097656 1.804688 -27.445312 2.015625 -27.84375 C 2.378906 -28.550781 3.40625 -28.90625 5.09375 -28.90625 C 6.925781 -28.90625 8.015625 -28.421875 8.359375 -27.453125 C 8.492188 -27.003906 8.5625 -26.316406 8.5625 -25.390625 L 8.5625 -3.46875 C 8.5625 -2.84375 8.539062 -2.382812 8.5 -2.09375 C 8.457031 -1.800781 8.332031 -1.457031 8.125 -1.0625 C 7.757812 -0.351562 6.734375 0 5.046875 0 C 3.203125 0 2.125 -0.5 1.8125 -1.5 C 1.65625 -1.914062 1.578125 -2.585938 1.578125 -3.515625 Z M 1.578125 -25.4375 "/></g></g><g style="fill:#ffffff;fill-opacity:1;"><g transform="translate(247.940163, 216.818991)"><path style="stroke:none" d="M 8.5625 -6.984375 L 20.703125 -6.984375 C 21.304688 -6.984375 21.757812 -6.960938 22.0625 -6.921875 C 22.363281 -6.878906 22.710938 -6.753906 23.109375 -6.546875 C 23.816406 -6.179688 24.171875 -5.15625 24.171875 -3.46875 C 24.171875 -1.625 23.6875 -0.546875 22.71875 -0.234375 C 22.269531 -0.078125 21.585938 0 20.671875 0 L 5.046875 0 C 3.203125 0 2.125 -0.5 1.8125 -1.5 C 1.65625 -1.914062 1.578125 -2.585938 1.578125 -3.515625 L 1.578125 -25.4375 C 1.578125 -26.78125 1.828125 -27.691406 2.328125 -28.171875 C 2.828125 -28.660156 3.773438 -28.90625 5.171875 -28.90625 L 20.703125 -28.90625 C 21.304688 -28.90625 21.757812 -28.882812 22.0625 -28.84375 C 22.363281 -28.8125 22.710938 -28.6875 23.109375 -28.46875 C 23.816406 -28.101562 24.171875 -27.078125 24.171875 -25.390625 C 24.171875 -23.554688 23.6875 -22.476562 22.71875 -22.15625 C 22.269531 -22 21.585938 -21.921875 20.671875 -21.921875 L 8.5625 -21.921875 L 8.5625 -17.9375 L 16.359375 -17.9375 C 16.972656 -17.9375 17.429688 -17.914062 17.734375 -17.875 C 18.035156 -17.84375 18.378906 -17.722656 18.765625 -17.515625 C 19.484375 -17.140625 19.84375 -16.113281 19.84375 -14.4375 C 19.84375 -12.59375 19.34375 -11.515625 18.34375 -11.203125 C 17.894531 -11.046875 17.207031 -10.96875 16.28125 -10.96875 L 8.5625 -10.96875 Z M 8.5625 -6.984375 "/></g></g><g style="fill:#ffffff;fill-opacity:1;"><g transform="translate(90.620171, 235.240591)"><path style="stroke:none" d="M 2.953125 -0.96875 C 3.097656 -0.96875 3.253906 -0.988281 3.421875 -1.03125 C 3.585938 -1.070312 3.734375 -1.144531 3.859375 -1.25 C 3.984375 -1.363281 4.046875 -1.507812 4.046875 -1.6875 C 4.046875 -1.863281 3.976562 -2 3.84375 -2.09375 C 3.71875 -2.195312 3.546875 -2.28125 3.328125 -2.34375 C 3.117188 -2.414062 2.890625 -2.476562 2.640625 -2.53125 C 2.390625 -2.59375 2.132812 -2.664062 1.875 -2.75 C 1.625 -2.832031 1.390625 -2.941406 1.171875 -3.078125 C 0.960938 -3.210938 0.789062 -3.382812 0.65625 -3.59375 C 0.53125 -3.800781 0.46875 -4.070312 0.46875 -4.40625 C 0.46875 -4.726562 0.535156 -5.003906 0.671875 -5.234375 C 0.804688 -5.460938 0.984375 -5.65625 1.203125 -5.8125 C 1.421875 -5.96875 1.664062 -6.082031 1.9375 -6.15625 C 2.21875 -6.238281 2.5 -6.28125 2.78125 -6.28125 C 3.207031 -6.28125 3.601562 -6.210938 3.96875 -6.078125 C 4.34375 -5.941406 4.644531 -5.726562 4.875 -5.4375 C 5.113281 -5.15625 5.238281 -4.773438 5.25 -4.296875 L 3.921875 -4.296875 C 3.890625 -4.617188 3.78125 -4.84375 3.59375 -4.96875 C 3.40625 -5.09375 3.140625 -5.15625 2.796875 -5.15625 C 2.671875 -5.15625 2.535156 -5.132812 2.390625 -5.09375 C 2.253906 -5.050781 2.132812 -4.984375 2.03125 -4.890625 C 1.925781 -4.796875 1.875 -4.671875 1.875 -4.515625 C 1.875 -4.359375 1.941406 -4.234375 2.078125 -4.140625 C 2.210938 -4.046875 2.382812 -3.96875 2.59375 -3.90625 C 2.800781 -3.84375 3.03125 -3.785156 3.28125 -3.734375 C 3.539062 -3.679688 3.796875 -3.613281 4.046875 -3.53125 C 4.296875 -3.457031 4.523438 -3.351562 4.734375 -3.21875 C 4.953125 -3.082031 5.125 -2.90625 5.25 -2.6875 C 5.382812 -2.46875 5.453125 -2.1875 5.453125 -1.84375 C 5.453125 -1.476562 5.378906 -1.164062 5.234375 -0.90625 C 5.085938 -0.65625 4.890625 -0.453125 4.640625 -0.296875 C 4.398438 -0.148438 4.125 -0.0390625 3.8125 0.03125 C 3.507812 0.101562 3.203125 0.140625 2.890625 0.140625 C 2.429688 0.140625 2.003906 0.0664062 1.609375 -0.078125 C 1.210938 -0.234375 0.890625 -0.472656 0.640625 -0.796875 C 0.398438 -1.117188 0.273438 -1.53125 0.265625 -2.03125 L 1.65625 -2.03125 C 1.675781 -1.664062 1.8125 -1.394531 2.0625 -1.21875 C 2.320312 -1.050781 2.617188 -0.96875 2.953125 -0.96875 Z M 2.953125 -0.96875 "/></g></g><g style="fill:#ffffff;fill-opacity:1;"><g transform="translate(103.632964, 235.240591)"><path style="stroke:none" d="M 1.90625 -2.203125 L 1.90625 0 L 0.546875 0 L 0.546875 -6.1875 L 2.859375 -6.1875 C 3.191406 -6.1875 3.503906 -6.101562 3.796875 -5.9375 C 4.085938 -5.769531 4.316406 -5.535156 4.484375 -5.234375 C 4.660156 -4.941406 4.75 -4.597656 4.75 -4.203125 C 4.75 -3.785156 4.660156 -3.425781 4.484375 -3.125 C 4.316406 -2.832031 4.085938 -2.601562 3.796875 -2.4375 C 3.503906 -2.28125 3.191406 -2.203125 2.859375 -2.203125 Z M 2.640625 -5.109375 L 1.90625 -5.109375 L 1.90625 -3.28125 L 2.640625 -3.28125 C 2.835938 -3.28125 3.019531 -3.359375 3.1875 -3.515625 C 3.363281 -3.671875 3.453125 -3.898438 3.453125 -4.203125 C 3.453125 -4.484375 3.363281 -4.703125 3.1875 -4.859375 C 3.019531 -5.023438 2.835938 -5.109375 2.640625 -5.109375 Z M 2.640625 -5.109375 "/></g></g><g style="fill:#ffffff;fill-opacity:1;"><g transform="translate(115.808559, 235.240591)"><path style="stroke:none" d="M 0.546875 0 L 0.546875 -6.1875 L 1.90625 -6.1875 L 1.90625 -1.234375 L 4.125 -1.234375 L 4.125 0 Z M 0.546875 0 "/></g></g><g style="fill:#ffffff;fill-opacity:1;"><g transform="translate(127.538264, 235.240591)"><path style="stroke:none" d="M 1.90625 0 L 0.546875 0 L 0.546875 -6.1875 L 1.90625 -6.1875 Z M 1.90625 0 "/></g></g><g style="fill:#ffffff;fill-opacity:1;"><g transform="translate(137.27509, 235.240591)"><path style="stroke:none" d="M 3.171875 -4.953125 L 3.171875 0 L 1.8125 0 L 1.8125 -4.953125 L 0.046875 -4.953125 L 0.046875 -6.1875 L 4.9375 -6.1875 L 4.9375 -4.953125 Z M 3.171875 -4.953125 "/></g></g><g style="fill:#ffffff;fill-opacity:1;"><g transform="translate(149.541691, 235.240591)"><path style="stroke:none" d=""/></g></g><g style="fill:#ffffff;fill-opacity:1;"><g transform="translate(159.096516, 235.240591)"><path style="stroke:none" d="M 2.953125 -0.96875 C 3.097656 -0.96875 3.253906 -0.988281 3.421875 -1.03125 C 3.585938 -1.070312 3.734375 -1.144531 3.859375 -1.25 C 3.984375 -1.363281 4.046875 -1.507812 4.046875 -1.6875 C 4.046875 -1.863281 3.976562 -2 3.84375 -2.09375 C 3.71875 -2.195312 3.546875 -2.28125 3.328125 -2.34375 C 3.117188 -2.414062 2.890625 -2.476562 2.640625 -2.53125 C 2.390625 -2.59375 2.132812 -2.664062 1.875 -2.75 C 1.625 -2.832031 1.390625 -2.941406 1.171875 -3.078125 C 0.960938 -3.210938 0.789062 -3.382812 0.65625 -3.59375 C 0.53125 -3.800781 0.46875 -4.070312 0.46875 -4.40625 C 0.46875 -4.726562 0.535156 -5.003906 0.671875 -5.234375 C 0.804688 -5.460938 0.984375 -5.65625 1.203125 -5.8125 C 1.421875 -5.96875 1.664062 -6.082031 1.9375 -6.15625 C 2.21875 -6.238281 2.5 -6.28125 2.78125 -6.28125 C 3.207031 -6.28125 3.601562 -6.210938 3.96875 -6.078125 C 4.34375 -5.941406 4.644531 -5.726562 4.875 -5.4375 C 5.113281 -5.15625 5.238281 -4.773438 5.25 -4.296875 L 3.921875 -4.296875 C 3.890625 -4.617188 3.78125 -4.84375 3.59375 -4.96875 C 3.40625 -5.09375 3.140625 -5.15625 2.796875 -5.15625 C 2.671875 -5.15625 2.535156 -5.132812 2.390625 -5.09375 C 2.253906 -5.050781 2.132812 -4.984375 2.03125 -4.890625 C 1.925781 -4.796875 1.875 -4.671875 1.875 -4.515625 C 1.875 -4.359375 1.941406 -4.234375 2.078125 -4.140625 C 2.210938 -4.046875 2.382812 -3.96875 2.59375 -3.90625 C 2.800781 -3.84375 3.03125 -3.785156 3.28125 -3.734375 C 3.539062 -3.679688 3.796875 -3.613281 4.046875 -3.53125 C 4.296875 -3.457031 4.523438 -3.351562 4.734375 -3.21875 C 4.953125 -3.082031 5.125 -2.90625 5.25 -2.6875 C 5.382812 -2.46875 5.453125 -2.1875 5.453125 -1.84375 C 5.453125 -1.476562 5.378906 -1.164062 5.234375 -0.90625 C 5.085938 -0.65625 4.890625 -0.453125 4.640625 -0.296875 C 4.398438 -0.148438 4.125 -0.0390625 3.8125 0.03125 C 3.507812 0.101562 3.203125 0.140625 2.890625 0.140625 C 2.429688 0.140625 2.003906 0.0664062 1.609375 -0.078125 C 1.210938 -0.234375 0.890625 -0.472656 0.640625 -0.796875 C 0.398438 -1.117188 0.273438 -1.53125 0.265625 -2.03125 L 1.65625 -2.03125 C 1.675781 -1.664062 1.8125 -1.394531 2.0625 -1.21875 C 2.320312 -1.050781 2.617188 -0.96875 2.953125 -0.96875 Z M 2.953125 -0.96875 "/></g></g><g style="fill:#ffffff;fill-opacity:1;"><g transform="translate(172.109309, 235.240591)"><path style="stroke:none" d="M 8.25 0 L 6.75 0 L 6.03125 -4.265625 L 4.8125 0 L 3.484375 0 L 2.28125 -4.265625 L 1.546875 0 L 0.046875 0 L 1.25 -6.1875 L 2.859375 -6.1875 L 4.15625 -1.84375 L 5.4375 -6.1875 L 7.0625 -6.1875 Z M 8.25 0 "/></g></g><g style="fill:#ffffff;fill-opacity:1;"><g transform="translate(187.697363, 235.240591)"><path style="stroke:none" d="M 3.90625 -2.359375 L 3.125 -4.5625 L 2.34375 -2.359375 Z M 6.21875 0 L 4.75 0 L 4.3125 -1.25 L 1.953125 -1.25 L 1.515625 0 L 0.046875 0 L 2.5625 -6.1875 L 3.703125 -6.1875 Z M 6.21875 0 "/></g></g><g style="fill:#ffffff;fill-opacity:1;"><g transform="translate(201.247041, 235.240591)"><path style="stroke:none" d="M 1.90625 -2.203125 L 1.90625 0 L 0.546875 0 L 0.546875 -6.1875 L 2.859375 -6.1875 C 3.191406 -6.1875 3.503906 -6.101562 3.796875 -5.9375 C 4.085938 -5.769531 4.316406 -5.535156 4.484375 -5.234375 C 4.660156 -4.941406 4.75 -4.597656 4.75 -4.203125 C 4.75 -3.859375 4.6875 -3.550781 4.5625 -3.28125 C 4.4375 -3.007812 4.265625 -2.789062 4.046875 -2.625 C 3.835938 -2.457031 3.601562 -2.34375 3.34375 -2.28125 L 5.125 0 L 3.390625 0 L 1.921875 -2.203125 Z M 2.640625 -5.109375 L 1.90625 -5.109375 L 1.90625 -3.28125 L 2.640625 -3.28125 C 2.835938 -3.28125 3.019531 -3.359375 3.1875 -3.515625 C 3.363281 -3.671875 3.453125 -3.898438 3.453125 -4.203125 C 3.453125 -4.484375 3.363281 -4.703125 3.1875 -4.859375 C 3.019531 -5.023438 2.835938 -5.109375 2.640625 -5.109375 Z M 2.640625 -5.109375 "/></g></g><g style="fill:#ffffff;fill-opacity:1;"><g transform="translate(213.540938, 235.240591)"><path style="stroke:none" d="M 3.171875 -4.953125 L 3.171875 0 L 1.8125 0 L 1.8125 -4.953125 L 0.046875 -4.953125 L 0.046875 -6.1875 L 4.9375 -6.1875 L 4.9375 -4.953125 Z M 3.171875 -4.953125 "/></g></g><g clip-rule="nonzero" clip-path="url(#afa1de3ebf)"><path style=" stroke:none;fill-rule:nonzero;fill:#ffffff;fill-opacity:1;" d="M 99.652344 202.035156 C 98.285156 201.949219 97.160156 203.070312 97.25 204.4375 C 97.320312 205.5625 98.230469 206.472656 99.355469 206.546875 C 100.722656 206.632812 101.847656 205.507812 101.757812 204.140625 C 101.6875 203.019531 100.777344 202.105469 99.652344 202.035156 Z M 119.753906 218.261719 L 119.558594 219.625 C 118.921875 219.625 118.386719 219.578125 117.753906 219.53125 C 114.191406 219.285156 112.285156 218.359375 110.140625 215.332031 C 108.335938 212.84375 106.578125 209.769531 105.015625 207.28125 C 104.5625 206.558594 104.183594 206.109375 103.660156 205.832031 C 103.347656 205.664062 103.257812 205.257812 103.480469 204.980469 C 103.585938 204.851562 103.6875 204.71875 103.785156 204.582031 C 104.25 203.941406 104.890625 203.453125 105.617188 203.144531 C 106.101562 202.941406 106.53125 202.679688 106.917969 202.351562 C 108.820312 200.9375 109.601562 198.984375 109.601562 196.351562 C 109.601562 191.128906 106.136719 189.226562 102.378906 189.226562 C 100.964844 189.226562 91.6875 189.199219 90.621094 189.167969 L 90.621094 187.519531 L 103.0625 187.519531 C 106.625 187.519531 109.015625 187.957031 110.871094 189.175781 C 112.871094 190.445312 114.191406 192.640625 114.191406 195.617188 C 114.191406 199.816406 111.507812 202.449219 107.894531 204.011719 C 108.773438 205.523438 110.871094 208.792969 112.335938 210.988281 C 114.140625 213.578125 115.066406 214.796875 116.191406 216.015625 C 117.507812 217.429688 118.628906 217.96875 119.753906 218.261719 "/></g></g></svg>